<svg width="100" height="100" viewBox="0 0 100 100" fill="none" xmlns="http://www.w3.org/2000/svg">
  <rect width="100" height="100" rx="25" fill="white"/>
  <g clip-path="url(#clip0_405_4)">
    <path
      d="M39.4142 85.9054C40.1175 86.2793 40.8593 85.4697 40.4288 84.7995C38.0916 81.162 35.8784 75.0411 39.4045 67.1581C45.2848 54.0125 48.8629 47.2041 48.8629 47.2041C48.8629 47.2041 50.7661 55.1495 55.9251 62.2141C60.8904 69.0133 63.6082 77.5645 59.2268 84.6881C58.8156 85.3567 59.5407 86.1455 60.2394 85.788C65.6629 83.0137 71.746 77.4486 72.4323 66.3742C72.6854 62.9902 72.3059 58.2526 70.4081 52.2741C67.968 44.6969 64.9682 41.1612 63.2326 39.6429C62.7134 39.1886 61.906 39.5912 61.9486 40.2797C62.4543 48.4555 59.3785 50.5302 57.6278 45.8545C56.9287 43.987 56.5209 40.7569 56.5209 36.8232C56.5209 30.2744 54.6209 23.533 50.4321 18.0548C49.3428 16.6303 48.0682 15.2991 46.6058 14.1639C46.0764 13.7528 45.309 14.166 45.3575 14.8345C45.6791 19.274 45.3877 31.9975 34.2252 47.198C24.1041 61.2981 28.026 72.1269 29.4177 75.0599C32.0784 80.6786 35.7897 83.9782 39.4142 85.9054Z"
      fill="black"/>
  </g>
  <defs>
    <clipPath id="clip0_405_4">
      <rect width="72" height="72" fill="white" transform="translate(14 14)"/>
    </clipPath>
  </defs>
</svg>
